<svg width="64" height="64" viewBox="0 0 64 64" fill="none" xmlns="http://www.w3.org/2000/svg">
<path d="M57.136 29.5867L11.8027 8.25333C11.3462 8.03738 10.8378 7.95559 10.3367 8.01751C9.83552 8.07943 9.36229 8.28251 8.97214 8.60307C8.58199 8.92363 8.29098 9.34848 8.13302 9.82809C7.97507 10.3077 7.95668 10.8223 8.08 11.312L13.2507 32L8.08 52.688C7.95553 53.1778 7.97311 53.693 8.1307 54.1732C8.28828 54.6534 8.57935 55.0789 8.96986 55.3997C9.36036 55.7206 9.83416 55.9236 10.3358 55.985C10.8375 56.0465 11.3463 55.9638 11.8027 55.7467L57.136 34.4133C57.5941 34.198 57.9815 33.8567 58.2528 33.4293C58.5242 33.002 58.6682 32.5062 58.6682 32C58.6682 31.4938 58.5242 30.998 58.2528 30.5707C57.9815 30.1433 57.5941 29.802 57.136 29.5867V29.5867ZM14.616 48.5253L16.8533 39.5733L32 32L16.8533 24.4267L14.616 15.4747L49.736 32L14.616 48.5253Z" fill="white"/>
</svg>
