<svg width="635" height="222" viewBox="0 0 635 222" fill="none" xmlns="http://www.w3.org/2000/svg">
<path d="M88.3028 221.608C71.5988 221.608 55.2788 219.784 39.3428 216.136C23.5988 212.296 10.6387 207.208 0.46275 200.872L22.3508 151.336C31.9508 156.904 42.7028 161.416 54.6068 164.872C66.5108 168.136 77.9348 169.768 88.8788 169.768C98.2868 169.768 105.007 168.904 109.039 167.176C113.071 165.256 115.087 162.472 115.087 158.824C115.087 154.6 112.399 151.432 107.023 149.32C101.839 147.208 93.1988 144.904 81.1028 142.408C65.5508 139.144 52.5908 135.688 42.2228 132.04C31.8548 128.2 22.8308 122.056 15.1508 113.608C7.47075 104.968 3.63075 93.352 3.63075 78.76C3.63075 66.088 7.18275 54.568 14.2868 44.2C21.3908 33.832 31.9508 25.672 45.9668 19.72C60.1748 13.768 77.3588 10.792 97.5188 10.792C111.343 10.792 124.879 12.328 138.127 15.4C151.567 18.28 163.375 22.6 173.551 28.36L153.103 77.608C133.327 67.624 114.607 62.632 96.9428 62.632C79.4708 62.632 70.7347 66.856 70.7347 75.304C70.7347 79.336 73.3268 82.408 78.5108 84.52C83.6948 86.44 92.2388 88.552 104.143 90.856C119.503 93.736 132.463 97.096 143.023 100.936C153.583 104.584 162.703 110.632 170.383 119.08C178.255 127.528 182.191 139.048 182.191 153.64C182.191 166.312 178.639 177.832 171.535 188.2C164.431 198.376 153.775 206.536 139.567 212.68C125.551 218.632 108.463 221.608 88.3028 221.608ZM283.632 219.88C266.16 219.88 250.416 216.424 236.4 209.512C222.576 202.408 211.728 192.712 203.856 180.424C195.984 167.944 192.048 153.832 192.048 138.088C192.048 122.344 195.984 108.328 203.856 96.04C211.728 83.56 222.576 73.864 236.4 66.952C250.416 60.04 266.16 56.584 283.632 56.584C301.296 56.584 317.04 60.04 330.864 66.952C344.88 73.864 355.728 83.56 363.408 96.04C371.28 108.328 375.216 122.344 375.216 138.088C375.216 153.832 371.28 167.944 363.408 180.424C355.728 192.712 344.88 202.408 330.864 209.512C317.04 216.424 301.296 219.88 283.632 219.88ZM283.632 169.192C291.12 169.192 297.264 166.504 302.064 161.128C306.864 155.56 309.264 147.88 309.264 138.088C309.264 128.296 306.864 120.712 302.064 115.336C297.264 109.96 291.12 107.272 283.632 107.272C276.144 107.272 270 109.96 265.2 115.336C260.4 120.712 258 128.296 258 138.088C258 147.88 260.4 155.56 265.2 161.128C270 166.504 276.144 169.192 283.632 169.192ZM465.859 68.104H500.132V115.624H467.876V217H402.788V115.624H381.188V68.104H402.788V67.24C402.788 46.696 408.932 30.472 421.22 18.568C433.508 6.47199 450.788 0.42399 473.06 0.42399C480.356 0.42399 487.46 1.09599 494.372 2.43998C501.284 3.78399 507.044 5.70399 511.652 8.19999L496.1 53.416C490.724 50.92 485.828 49.672 481.412 49.672C476.612 49.672 472.772 51.208 469.892 54.28C467.204 57.16 465.859 61.672 465.859 67.816V68.104ZM634.277 211.528C624.485 217.096 611.141 219.88 594.245 219.88C572.165 219.88 555.173 214.6 543.269 204.04C531.365 193.288 525.413 177.256 525.413 155.944V115.624H503.812V68.104H525.413V24.04H590.501V68.104H622.757V115.624H590.501V155.368C590.501 160.168 591.749 163.912 594.245 166.6C596.741 169.288 600.005 170.632 604.037 170.632C609.605 170.632 614.501 169.192 618.725 166.312L634.277 211.528Z" fill="#F8F8F8"/>
</svg>
