<svg id="Capa_1" enable-background="new 0 0 512 512" height="512" viewBox="0 0 512 512" width="512" xmlns="http://www.w3.org/2000/svg"><g><g><g><g><g><g id="XMLID_1899_"><g id="XMLID_1900_"><g id="XMLID_1901_"><g id="XMLID_1902_"><g id="XMLID_1905_"><g id="XMLID_1906_"><g id="XMLID_1907_"><g id="XMLID_1908_"><g id="XMLID_1911_"><g id="XMLID_1921_"><g id="XMLID_1922_"><g id="XMLID_2283_"><g id="XMLID_2284_"><g id="XMLID_2285_"><g id="XMLID_2286_"><circle cx="256" cy="256" fill="#306baa" r="256"/></g></g></g></g></g></g></g></g></g></g></g></g></g></g></g></g></g></g></g><path d="m512 256c0-30.32-5.271-59.408-14.947-86.399l-116.458-116.459-44.137 84.578-84.578-84.578-135.822 291.502 65.906 65.906 4.349 60.226 39.458 39.458c9.913 1.166 20.001 1.766 30.229 1.766 141.385 0 256-114.615 256-256z" fill="#0f476d"/><g><g><path d="m239.54 239.032c-.25 5.35 3.2 10.47 2.95 15.7-1.9 41.18-3.59 77.79-4.55 99.06-.16 3.67-7.55 5.36-7.67 8.06-.33 7.56 6.39 17.15 5.66 25.35-1.23 13.78-3.06 27.97-5.65 40.93 0 0-19.4 35.71-42.57 14.94-36.21-32.46-31.41-188.34-31.41-188.34-.55-5.11 2.04-10.11 1.54-15-.51-5.12-4.11-10.12-4.58-15-.67-6.95-1.09-13.68-1.89-20.14-9.85-79.67-10.74-126.43-9.8-151.45h57.01s48.35 106.13 45.31 171.59c-.22 4.73-4.13 9.63-4.35 14.3z" fill="#ffd3ab"/><g><path d="m239.54 239.032c-.25 5.35 3.2 10.47 2.95 15.7-1.9 41.18-3.59 77.79-4.55 99.06-.16 3.67-7.55 5.36-7.67 8.06-.33 7.56 6.39 17.15 5.66 25.35-1.23 13.78-3.06 27.97-5.65 40.93 0 0-13.64 25.1-31.7 20.97v-395.96h53.3c-1.68 36-4.95 106.13-7.99 171.59-.22 4.73-4.13 9.63-4.35 14.3z" fill="#ffb985"/></g><path d="m147.611 302.089-14.902 26.037 103.219 59.074c.731-8.203 1.248-16.259 1.583-23.817.12-2.703.265-5.921.431-9.596z" fill="#ad234a"/><g><path d="m235.928 387.2c.731-8.203 1.248-16.259 1.583-23.817.12-2.703.265-5.921.431-9.596l-39.362-22.531v34.566z" fill="#7c142f"/></g><path d="m186.312 470.776c23.161 20.765 36.617-5.973 43.962-42.646-35.862 11.026-73.972-173.394-73.972-173.394s-45.438 9.995-52.669 47.458 23.988 53.697 36.476 53.697c-.001-.001 9.989 82.417 46.203 114.885z" fill="#e25744"/><g><path d="m198.58 395.74v82.003c15.827 3.194 25.756-19.962 31.694-49.613-10.725 3.297-21.646-10.887-31.694-32.39z" fill="#c43368"/></g><g><path d="m243.89 224.732c-.48 10.16-.94 20.21-1.4 30h-86.19c-1.12-10.46-2.12-20.45-3.04-30z" fill="#c43368"/></g><path d="m242.49 254.732c.46-9.79.92-19.84 1.4-30h-45.31v30z" fill="#ad234a"/></g><g><path d="m368.255 239.032c-.25 5.35 3.2 10.47 2.95 15.7-1.9 41.18-3.59 77.79-4.55 99.06-.16 3.67-7.55 5.36-7.67 8.06-.33 7.56 6.39 17.15 5.66 25.35-1.23 13.78-3.06 27.97-5.65 40.93 0 0-19.4 35.71-42.57 14.94-36.21-32.46-31.41-188.34-31.41-188.34-.55-5.11 2.04-10.11 1.54-15-.51-5.12-4.11-10.12-4.58-15-.67-6.95-1.09-13.68-1.89-20.14-9.85-79.67-10.74-126.43-9.8-151.45h57.01s48.35 106.13 45.31 171.59c-.221 4.73-4.131 9.63-4.35 14.3z" fill="#ffd3ab"/><g><path d="m368.255 239.032c-.25 5.35 3.2 10.47 2.95 15.7-1.9 41.18-3.59 77.79-4.55 99.06-.16 3.67-7.55 5.36-7.67 8.06-.33 7.56 6.39 17.15 5.66 25.35-1.23 13.78-3.06 27.97-5.65 40.93 0 0-13.64 25.1-31.7 20.97v-395.96h53.3c-1.68 36-4.95 106.13-7.99 171.59-.221 4.73-4.131 9.63-4.35 14.3z" fill="#ffb985"/></g><path d="m276.326 302.089-14.902 26.037 103.218 59.074c.731-8.203 1.248-16.259 1.583-23.817.12-2.703.265-5.921.431-9.596z" fill="#ad234a"/><g><path d="m364.642 387.2c.731-8.203 1.248-16.259 1.583-23.817.12-2.703.265-5.921.431-9.596l-39.362-22.531v34.566z" fill="#7c142f"/></g><path d="m315.027 470.776c23.161 20.765 36.617-5.973 43.962-42.646-35.862 11.026-73.972-173.394-73.972-173.394s-45.438 9.995-52.669 47.458 23.988 53.697 36.475 53.697c0-.001 9.99 82.417 46.204 114.885z" fill="#e25744"/><g><path d="m327.294 395.74v82.003c15.827 3.194 25.756-19.962 31.694-49.613-10.725 3.297-21.646-10.887-31.694-32.39z" fill="#c43368"/></g><g><path d="m372.604 224.732c-.48 10.16-.94 20.21-1.4 30h-86.19c-1.12-10.46-2.12-20.45-3.04-30z" fill="#c43368"/></g><path d="m371.204 254.732c.46-9.79.92-19.84 1.4-30h-45.31v30z" fill="#ad234a"/></g></g></g></svg>