<svg width="128" height="125" viewBox="0 0 128 125" fill="none" xmlns="http://www.w3.org/2000/svg">
<g clip-path="url(#clip0_29_57)">
<path d="M36.3519 97.7461C36.3519 97.7461 37.6102 92.734 25.0134 87.7251C12.4166 82.7163 7.37984 86.4737 7.37984 86.4737C7.37984 86.4737 17.4566 80.2102 17.4566 72.6953C17.4566 65.1804 3.60144 62.6743 3.60144 62.6743C3.60144 62.6743 11.1582 56.4108 11.1582 47.6412C11.1582 38.8716 3.60144 34.0648 3.60144 34.0648C3.60144 34.0648 11.1582 35.1141 12.4199 27.5992C13.6815 20.0843 12.4199 5.05444 12.4199 5.05444C12.4199 5.05444 19.8259 22.5904 25.5672 24.4675C31.3086 26.3446 40.1303 22.5904 40.1303 22.5904C40.1303 22.5904 35.0902 35.0653 40.1303 39.4745C45.1703 43.8837 52.7238 43.8837 52.7238 43.8837C52.7238 43.8837 46.4287 51.3986 47.6871 57.6622C48.9454 63.9257 54.5884 66.4187 54.5884 66.4187C54.5884 66.4187 48.9454 76.4397 50.2071 82.713C51.4687 88.9863 50.0563 97.7461 50.0563 97.7461H36.3519Z" fill="#009513" stroke="#007B0F" stroke-width="5" stroke-miterlimit="10"/>
<path d="M43.9086 99.0074C43.9086 99.0074 50.207 91.4924 50.207 80.2201C50.207 68.9477 42.2701 63.8117 42.2701 63.8117C42.2701 63.8117 55.2307 65.1935 57.7507 61.436C60.2707 57.6785 61.5423 42.6291 61.5423 42.6291C61.5423 42.6291 64.0623 52.6501 72.8774 53.9015C81.6926 55.1529 87.9943 36.3656 87.9943 36.3656C87.9943 36.3656 93.6864 46.3866 99.0279 46.3866C104.369 46.3866 114.43 40.1231 114.43 40.1231C114.43 40.1231 108.135 51.3955 109.393 57.659C110.651 63.9225 121.246 67.6832 121.246 67.6832C121.246 67.6832 109.406 66.4318 105.628 72.6954C101.849 78.9589 109.406 88.9896 109.406 88.9896C109.406 88.9896 103.108 86.4868 96.8094 88.9896C90.511 91.4924 90.511 101.517 90.511 101.517C90.511 101.517 85.4742 97.7592 76.6558 99.0106C67.8374 100.262 65.3206 104.023 65.3206 104.023L43.9086 99.0074Z" fill="#009713" stroke="#007B0F" stroke-width="5" stroke-miterlimit="10"/>
<path d="M54.5884 89.6055C54.5884 89.6055 68.247 85.2191 79.9329 75.1981C91.6187 65.1771 96.8094 58.9038 96.8094 58.9038C96.8094 58.9038 93.5914 71.4309 80.9192 78.9458C68.247 86.4607 54.5884 89.6055 54.5884 89.6055Z" fill="#007400"/>
<path d="M33.9728 82.775C33.9728 82.775 33.845 68.8531 29.4276 56.0165C25.0101 43.1799 21.8019 37.2031 21.8019 37.2031C21.8019 37.2031 29.729 42.1827 32.2195 55.6124C34.7101 69.0422 33.9728 82.775 33.9728 82.775Z" fill="#007400"/>
<path d="M28.6935 106.343C36.0053 106.343 41.9326 100.449 41.9326 93.1773C41.9326 85.906 36.0053 80.0115 28.6935 80.0115C21.3818 80.0115 15.4544 85.906 15.4544 93.1773C15.4544 100.449 21.3818 106.343 28.6935 106.343Z" fill="#FF0A41"/>
<path d="M28.7885 80.0115C32.3024 80.0175 35.6703 81.4101 38.1525 83.8835C40.6348 86.3569 42.0285 89.7089 42.0276 93.2033C42.0276 100.477 36.5485 106.346 28.7885 106.346C22.5786 106.346 17.1977 101.419 16.9323 98.9259C16.9323 98.9259 27.8808 106.372 34.7002 99.2192C34.7002 99.2192 40.1892 93.1773 36.2994 86.3956C32.8061 80.308 28.7885 80.0115 28.7885 80.0115Z" fill="#C90A41"/>
<path d="M22.3492 91.6325C23.4713 91.6325 24.3809 90.7279 24.3809 89.612C24.3809 88.4962 23.4713 87.5916 22.3492 87.5916C21.2271 87.5916 20.3174 88.4962 20.3174 89.612C20.3174 90.7279 21.2271 91.6325 22.3492 91.6325Z" fill="#FF7488"/>
<path d="M53.0613 108.999C60.3731 108.999 66.3004 103.105 66.3004 95.8333C66.3004 88.562 60.3731 82.6675 53.0613 82.6675C45.7496 82.6675 39.8222 88.562 39.8222 95.8333C39.8222 103.105 45.7496 108.999 53.0613 108.999Z" fill="#FF0A41"/>
<path d="M53.1564 82.6675C56.6712 82.6735 60.0399 84.0665 62.5227 86.5405C65.0056 89.0145 66.3997 92.3673 66.3988 95.8626C66.3988 103.133 60.9196 109.002 53.1564 109.002C46.9497 109.002 41.5689 104.075 41.3035 101.585C41.3035 101.585 52.2519 109.028 59.0714 101.875C59.0714 101.875 64.5604 95.8365 60.6706 89.0548C57.1773 82.964 53.1564 82.6675 53.1564 82.6675Z" fill="#C90A41"/>
<path d="M52.75 91.6326C54.2992 91.6326 55.5551 90.426 55.5551 88.9375C55.5551 87.4491 54.2992 86.2424 52.75 86.2424C51.2008 86.2424 49.9449 87.4491 49.9449 88.9375C49.9449 90.426 51.2008 91.6326 52.75 91.6326Z" fill="#FF7488"/>
<path d="M36.5091 124.997C43.8209 124.997 49.7483 119.102 49.7483 111.831C49.7483 104.56 43.8209 98.6652 36.5091 98.6652C29.1974 98.6652 23.27 104.56 23.27 111.831C23.27 119.102 29.1974 124.997 36.5091 124.997Z" fill="#FF0A41"/>
<path d="M36.6042 98.6815C40.1187 98.6876 43.487 100.081 45.9694 102.555C48.4517 105.029 49.8451 108.382 49.8433 111.877C49.8433 119.147 44.3641 125.016 36.6042 125.016C30.3779 125.016 25.0134 120.089 24.748 117.596C24.748 117.596 35.6965 125.042 42.5159 117.889C42.5159 117.889 48.0049 111.847 44.1151 105.066C40.6316 98.9618 36.6042 98.6815 36.6042 98.6815Z" fill="#C90A41"/>
<path d="M32.0328 109.178C33.0463 109.178 33.8679 108.268 33.8679 107.145C33.8679 106.022 33.0463 105.111 32.0328 105.111C31.0192 105.111 30.1976 106.022 30.1976 107.145C30.1976 108.268 31.0192 109.178 32.0328 109.178Z" fill="#FF7488"/>
</g>
<defs>
<clipPath id="clip0_29_57">
<rect width="128" height="125" fill="white"/>
</clipPath>
</defs>
</svg>
