<svg width="24" height="25" viewBox="0 0 24 25" fill="none" xmlns="http://www.w3.org/2000/svg">
<path d="M16.0113 23.9717C12.3331 24.3322 8.97009 21.1905 6.18512 18.1002C3.40016 15.01 0.82538 10.9413 1.00929 7.54199C1.1932 4.14272 3.63662 1.07828 5.68593 1.00103C7.73524 0.923772 9.81083 5.22431 9.65319 6.64068C9.49555 8.05705 6.92077 9.7824 6.92077 9.7824C6.92077 9.7824 5.7122 10.967 8.97009 14.701C12.228 18.435 12.8848 18.1002 13.6993 18.1002C14.5137 18.1002 16.3557 15.4145 17.9583 15.26C19.561 15.1055 23 18.332 23 20.1089C23 21.8858 19.6896 23.6112 16.0113 23.9717Z" stroke="#323232" stroke-width="2"/>
</svg>
