<?xml version="1.0" standalone="no"?>
<!DOCTYPE svg PUBLIC "-//W3C//DTD SVG 20010904//EN"
 "http://www.w3.org/TR/2001/REC-SVG-20010904/DTD/svg10.dtd">
<svg version="1.0" xmlns="http://www.w3.org/2000/svg"
 width="260.000000pt" height="260.000000pt" viewBox="0 0 260.000000 260.000000"
 preserveAspectRatio="xMidYMid meet">
<metadata>
Created by potrace 1.14, written by Peter Selinger 2001-2017
</metadata>
<g transform="translate(0.000000,260.000000) scale(0.100000,-0.100000)"
fill="#000000" stroke="none">
<path d="M869 2595 c-3 -2 -23 -7 -45 -9 -124 -16 -302 -92 -419 -179 -203
-152 -333 -356 -385 -604 -19 -91 -20 -128 -17 -533 l3 -435 27 -99 c64 -230
207 -432 400 -565 71 -48 219 -115 317 -142 84 -24 92 -24 530 -24 245 0 465
3 490 7 263 42 524 212 667 435 53 84 108 207 134 303 22 82 23 100 26 525 2
404 1 447 -17 530 -70 320 -260 562 -553 700 -180 86 -200 88 -708 92 -245 2
-448 1 -450 -2z"/>
</g>
</svg>
