<svg width="80" height="91" viewBox="0 0 80 91" fill="none" xmlns="http://www.w3.org/2000/svg">
<g clip-path="url(#clip0_29_39)">
<path d="M43.8153 3.80714C43.8153 1.70452 42.1071 0 40 0C37.8929 0 36.1847 1.70452 36.1847 3.80714V87.1929C36.1847 89.2955 37.8929 91 40 91C42.1071 91 43.8153 89.2955 43.8153 87.1929V3.80714Z" fill="white"/>
<path d="M5.72373 21.3562C3.89891 20.3048 1.56551 20.9287 0.511952 22.7497C-0.54161 24.5706 0.0836202 26.899 1.90844 27.9503L74.277 69.6432C76.1019 70.6945 78.4352 70.0706 79.4888 68.2497C80.5424 66.4288 79.9171 64.1003 78.0923 63.049L5.72373 21.3562Z" fill="white"/>
<path d="M78.0925 27.951C79.9173 26.8997 80.5426 24.5713 79.489 22.7503C78.4354 20.9294 76.102 20.3055 74.2772 21.3568L1.90864 63.0497C0.0838263 64.101 -0.541406 66.4294 0.512156 68.2503C1.56572 70.0713 3.89911 70.6952 5.72393 69.6439L78.0925 27.951Z" fill="white"/>
<path d="M68.0098 18.7758C68.0098 16.6731 66.3016 14.9686 64.1945 14.9686C62.0874 14.9686 60.3792 16.6731 60.3792 18.7758V29.7143C60.3792 31.817 62.0874 33.5215 64.1945 33.5215C66.3016 33.5215 68.0098 31.817 68.0098 29.7143V18.7758Z" fill="white"/>
<path d="M68.149 28.8905C66.3242 27.8392 63.9908 28.463 62.9372 30.284C61.8837 32.1049 62.5089 34.4333 64.3337 35.4846L73.827 40.9539C75.6518 42.0052 77.9852 41.3813 79.0388 39.5604C80.0923 37.7395 79.4671 35.4111 77.6423 34.3597L68.149 28.8905Z" fill="white"/>
<path d="M77.6112 56.2263C79.3389 55.0227 79.7617 52.6493 78.5555 50.9253C77.3493 49.2012 74.9709 48.7793 73.2432 49.9829L64.2549 56.2445C62.5271 57.4481 62.1043 59.8215 63.3105 61.5455C64.5167 63.2696 66.8951 63.6915 68.6229 62.4879L77.6112 56.2263Z" fill="white"/>
<path d="M68.3904 61.412C68.3904 59.3094 66.6822 57.6049 64.5751 57.6049C62.468 57.6049 60.7598 59.3094 60.7598 61.412V72.3506C60.7598 74.4532 62.468 76.1577 64.5751 76.1577C66.6822 76.1577 68.3904 74.4532 68.3904 72.3506V61.412Z" fill="white"/>
<path d="M53.2717 13.7674C54.9995 12.5638 55.4223 10.1905 54.2161 8.4664C53.0099 6.74235 50.6315 6.32045 48.9038 7.52406L39.9155 13.7857C38.1877 14.9893 37.7649 17.3626 38.9711 19.0867C40.1773 20.8107 42.5557 21.2326 44.2835 20.029L53.2717 13.7674Z" fill="white"/>
<path d="M31.2874 7.49357C29.506 6.37065 27.1495 6.90142 26.0242 8.67908C24.8989 10.4567 25.4308 12.8081 27.2123 13.9311L36.48 19.7729C38.2615 20.8958 40.6179 20.365 41.7432 18.5874C42.8686 16.8097 42.3367 14.4583 40.5552 13.3354L31.2874 7.49357Z" fill="white"/>
<path d="M26.9507 77.2569C25.223 78.4605 24.8002 80.8338 26.0063 82.5579C27.2125 84.2819 29.5909 84.7038 31.3187 83.5002L40.307 77.2386C42.0347 76.035 42.4575 73.6617 41.2513 71.9376C40.0451 70.2136 37.6667 69.7916 35.939 70.9953L26.9507 77.2569Z" fill="white"/>
<path d="M49.3913 85.2243C51.1823 86.3387 53.5396 85.7932 54.6564 84.006C55.7731 82.2187 55.2265 79.8665 53.4355 78.7521L44.1178 72.9547C42.3268 71.8403 39.9695 72.3857 38.8527 74.173C37.7359 75.9602 38.2826 78.3124 40.0736 79.4268L49.3913 85.2243Z" fill="white"/>
<path d="M3.10769 34.6384C1.3276 35.7635 0.798572 38.1155 1.92607 39.8918C3.05357 41.6681 5.41064 42.196 7.19072 41.0709L16.4513 35.2178C18.2314 34.0927 18.7604 31.7406 17.6329 29.9643C16.5054 28.188 14.1484 27.6602 12.3683 28.7852L3.10769 34.6384Z" fill="white"/>
<path d="M12.6079 29.9311C12.6943 32.032 14.471 33.6652 16.5764 33.579C18.6817 33.4927 20.3184 31.7198 20.232 29.6189L19.7825 18.6895C19.6961 16.5887 17.9194 14.9555 15.814 15.0417C13.7087 15.1279 12.072 16.9009 12.1584 19.0018L12.6079 29.9311Z" fill="white"/>
<path d="M12.63 62.2955C14.4548 63.3468 16.7882 62.7229 17.8418 60.9019C18.8953 59.081 18.2701 56.7526 16.4453 55.7013L6.95196 50.232C5.12713 49.1807 2.79374 49.8046 1.74018 51.6255C0.686617 53.4464 1.31185 55.7749 3.13667 56.8262L12.63 62.2955Z" fill="white"/>
<path d="M12.0594 72.0859C11.93 74.1846 13.5301 75.9906 15.6332 76.1196C17.7364 76.2487 19.5462 74.6521 19.6756 72.5534L20.3486 61.6355C20.478 59.5368 18.8779 57.7309 16.7748 57.6018C14.6716 57.4727 12.8618 59.0693 12.7324 61.168L12.0594 72.0859Z" fill="white"/>
</g>
<defs>
<clipPath id="clip0_29_39">
<rect width="80" height="91" fill="white"/>
</clipPath>
</defs>
</svg>
