<svg width="222" height="635" viewBox="0 0 222 635" fill="none" xmlns="http://www.w3.org/2000/svg">
<path d="M221.608 546.697C221.608 563.401 219.784 579.721 216.136 595.657C212.296 611.401 207.208 624.361 200.872 634.537L151.336 612.649C156.904 603.049 161.416 592.297 164.872 580.393C168.136 568.489 169.768 557.065 169.768 546.121C169.768 536.713 168.904 529.993 167.176 525.961C165.256 521.929 162.472 519.913 158.824 519.913C154.6 519.913 151.432 522.601 149.32 527.977C147.208 533.161 144.904 541.801 142.408 553.897C139.144 569.449 135.688 582.409 132.04 592.777C128.2 603.145 122.056 612.169 113.608 619.849C104.968 627.529 93.352 631.369 78.76 631.369C66.088 631.369 54.568 627.817 44.2 620.713C33.832 613.609 25.672 603.049 19.72 589.033C13.768 574.825 10.792 557.641 10.792 537.481C10.792 523.657 12.328 510.121 15.4 496.873C18.28 483.433 22.6 471.625 28.36 461.449L77.608 481.897C67.624 501.673 62.632 520.393 62.632 538.057C62.632 555.529 66.856 564.265 75.304 564.265C79.336 564.265 82.408 561.673 84.52 556.489C86.44 551.305 88.552 542.761 90.856 530.857C93.736 515.497 97.096 502.537 100.936 491.977C104.584 481.417 110.632 472.297 119.08 464.617C127.528 456.745 139.048 452.809 153.64 452.809C166.312 452.809 177.832 456.361 188.2 463.465C198.376 470.569 206.536 481.225 212.68 495.433C218.632 509.449 221.608 526.537 221.608 546.697ZM219.88 351.368C219.88 368.84 216.424 384.584 209.512 398.6C202.408 412.424 192.712 423.272 180.424 431.144C167.944 439.016 153.832 442.952 138.088 442.952C122.344 442.952 108.328 439.016 96.04 431.144C83.56 423.272 73.864 412.424 66.952 398.6C60.04 384.584 56.584 368.84 56.584 351.368C56.584 333.704 60.04 317.96 66.952 304.136C73.864 290.12 83.56 279.272 96.04 271.592C108.328 263.72 122.344 259.784 138.088 259.784C153.832 259.784 167.944 263.72 180.424 271.592C192.712 279.272 202.408 290.12 209.512 304.136C216.424 317.96 219.88 333.704 219.88 351.368ZM169.192 351.368C169.192 343.88 166.504 337.736 161.128 332.936C155.56 328.136 147.88 325.736 138.088 325.736C128.296 325.736 120.712 328.136 115.336 332.936C109.96 337.736 107.272 343.88 107.272 351.368C107.272 358.856 109.96 365 115.336 369.8C120.712 374.6 128.296 377 138.088 377C147.88 377 155.56 374.6 161.128 369.8C166.504 365 169.192 358.856 169.192 351.368ZM68.104 169.141V134.868H115.624V167.124H217L217 232.212H115.624V253.812H68.104V232.212H67.24C46.696 232.212 30.472 226.068 18.568 213.78C6.47199 201.492 0.42399 184.212 0.42399 161.94C0.42399 154.644 1.09599 147.54 2.43998 140.628C3.78399 133.716 5.70399 127.956 8.19999 123.348L53.416 138.9C50.92 144.276 49.672 149.172 49.672 153.588C49.672 158.388 51.208 162.228 54.28 165.108C57.16 167.796 61.672 169.141 67.816 169.141H68.104ZM211.528 0.723497C217.096 10.5155 219.88 23.8595 219.88 40.7555C219.88 62.8355 214.6 79.8275 204.04 91.7315C193.288 103.635 177.256 109.587 155.944 109.587H115.624V131.188H68.104V109.587H24.04L24.04 44.4995H68.104V12.2435H115.624V44.4995H155.368C160.168 44.4995 163.912 43.2515 166.6 40.7555C169.288 38.2595 170.632 34.9955 170.632 30.9635C170.632 25.3955 169.192 20.4995 166.312 16.2755L211.528 0.723497Z" fill="#F9F9F9"/>
</svg>
