<svg width="181" height="529" viewBox="0 0 181 529" fill="none" xmlns="http://www.w3.org/2000/svg">
<path d="M184.84 455.664C184.84 469.584 183.32 483.184 180.28 496.464C177.08 509.584 172.84 520.384 167.56 528.864L126.28 510.624C130.92 502.624 134.68 493.664 137.56 483.744C140.28 473.824 141.64 464.304 141.64 455.184C141.64 447.344 140.92 441.744 139.48 438.384C137.88 435.024 135.56 433.344 132.52 433.344C129 433.344 126.36 435.584 124.6 440.064C122.84 444.384 120.92 451.584 118.84 461.664C116.12 474.624 113.24 485.424 110.2 494.064C107 502.704 101.88 510.224 94.84 516.624C87.64 523.024 77.96 526.224 65.8 526.224C55.24 526.224 45.64 523.264 37 517.344C28.36 511.424 21.56 502.624 16.6 490.944C11.64 479.104 9.16 464.784 9.16 447.984C9.16 436.464 10.44 425.184 13 414.144C15.4 402.944 19 393.104 23.8 384.624L64.84 401.664C56.52 418.144 52.36 433.744 52.36 448.464C52.36 463.024 55.88 470.304 62.92 470.304C66.28 470.304 68.84 468.144 70.6 463.824C72.2 459.504 73.96 452.384 75.88 442.464C78.28 429.664 81.08 418.864 84.28 410.064C87.32 401.264 92.36 393.664 99.4 387.264C106.44 380.704 116.04 377.424 128.2 377.424C138.76 377.424 148.36 380.384 157 386.304C165.48 392.224 172.28 401.104 177.4 412.944C182.36 424.624 184.84 438.864 184.84 455.664ZM183.4 292.89C183.4 307.45 180.52 320.57 174.76 332.25C168.84 343.77 160.76 352.81 150.52 359.37C140.12 365.93 128.36 369.21 115.24 369.21C102.12 369.21 90.44 365.93 80.2 359.37C69.8 352.81 61.72 343.77 55.96 332.25C50.2 320.57 47.32 307.45 47.32 292.89C47.32 278.17 50.2 265.05 55.96 253.53C61.72 241.85 69.8 232.81 80.2 226.41C90.44 219.85 102.12 216.57 115.24 216.57C128.36 216.57 140.12 219.85 150.52 226.41C160.76 232.81 168.84 241.85 174.76 253.53C180.52 265.05 183.4 278.17 183.4 292.89ZM141.16 292.89C141.16 286.65 138.92 281.53 134.44 277.53C129.8 273.53 123.4 271.53 115.24 271.53C107.08 271.53 100.76 273.53 96.28 277.53C91.8 281.53 89.56 286.65 89.56 292.89C89.56 299.13 91.8 304.25 96.28 308.25C100.76 312.25 107.08 314.25 115.24 314.25C123.4 314.25 129.8 312.25 134.44 308.25C138.92 304.25 141.16 299.13 141.16 292.89ZM56.92 141.034V112.474H96.52V139.354H181V193.594H96.52V211.594H56.92V193.594H56.2C39.08 193.594 25.56 188.474 15.64 178.234C5.55999 167.994 0.519992 153.594 0.519992 135.034C0.519992 128.954 1.07999 123.034 2.19998 117.274C3.31999 111.514 4.91999 106.714 6.99999 102.874L44.68 115.834C42.6 120.314 41.56 124.394 41.56 128.074C41.56 132.074 42.84 135.274 45.4 137.674C47.8 139.914 51.56 141.034 56.68 141.034H56.92ZM176.44 0.686248C181.08 8.84625 183.4 19.9662 183.4 34.0462C183.4 52.4462 179 66.6062 170.2 76.5262C161.24 86.4462 147.88 91.4062 130.12 91.4062H96.52V109.406H56.92V91.4062H20.2L20.2 37.1662H56.92V10.2862H96.52V37.1662H129.64C133.64 37.1662 136.76 36.1262 139 34.0462C141.24 31.9662 142.36 29.2462 142.36 25.8862C142.36 21.2462 141.16 17.1662 138.76 13.6462L176.44 0.686248Z" fill="#F9F9F9"/>
</svg>
