<svg width="28" height="28" viewBox="0 0 28 28" fill="none" xmlns="http://www.w3.org/2000/svg">
<rect x="0.914062" y="0.959961" width="26.5226" height="26.5226" rx="3" fill="#323232"/>
<path d="M12.4549 11.9347V15.1358C12.4549 15.1358 9.25324 16.0503 9.25324 17.8795C9.25324 19.7086 10.1692 20.6232 11.9976 20.6232C13.8261 20.6232 15.1987 18.3368 15.1987 18.3368V4.61816H17.9424C17.9424 4.61816 17.9424 6.44731 19.3142 7.81917C20.6861 9.19103 22.5152 9.19103 22.5152 9.19103V12.392H20.2288L17.9424 10.1056V15.1358V19.2513C17.9424 19.2513 17.9431 21.0805 15.6559 22.4523C13.3688 23.8242 11.9976 23.8242 11.9976 23.8242C11.9976 23.8242 7.42478 24.2815 6.51021 19.2513C6.20694 17.5833 6.55286 15.7597 7.42564 14.6785C9.18488 12.4989 12.4549 11.9347 12.4549 11.9347Z" fill="#F8F8F8"/>
</svg>
